<svg width="29" height="70" viewBox="0 0 29 70" fill="none" xmlns="http://www.w3.org/2000/svg">
<g clip-path="url(#clip0_1_236)">
<path d="M28.6103 8.68599V62.5892L27.0831 64.1164L22.3644 68.8351L22.1882 68.9918H7.36626L6.54391 68.1694L5.91736 67.5428L5.60408 67.2296L3.6461 65.2716L3.35241 64.9779L3.07829 64.7038C2.88249 64.4819 2.68669 64.2861 2.4909 64.1164L0.944092 62.5892V8.68599C1.43359 8.19649 1.84476 7.707 2.25594 7.23708C3.05871 6.21893 3.72442 5.2791 4.44887 4.31969C4.91439 3.75633 5.43231 3.2384 5.99568 2.77289C6.25166 2.54125 6.52675 2.33165 6.81803 2.14634C6.91878 2.07008 7.03118 2.01058 7.15089 1.97012C7.46132 1.80081 7.78171 1.65042 8.1103 1.51978C12.4639 0.247637 17.0906 0.247637 21.4441 1.51978L21.7574 1.65684C22.0284 1.77402 22.2902 1.91147 22.5406 2.06802C22.8693 2.26736 23.1833 2.48982 23.4804 2.73373V2.73373C23.8029 2.97531 24.1042 3.24387 24.3811 3.5365C24.6356 3.81062 24.8902 4.08474 25.1251 4.37843C25.3601 4.67213 25.5951 4.98541 25.83 5.29868C26.065 5.61196 26.7698 6.55179 27.2985 7.25666C27.6947 7.76352 28.1197 8.24728 28.5712 8.70557L28.6103 8.68599Z" fill="#FDBF5A"/>
<g style="mix-blend-mode:multiply" opacity="0.3">
<path d="M10.1859 19.24C10.3425 19.4162 9.52014 20.1015 9.52014 20.1015L8.42367 16.6946C7.44468 13.6793 6.01536 9.23474 4.97763 5.96491C4.78183 5.37752 4.60561 4.82928 4.44897 4.32021C4.91449 3.75684 5.43241 3.23892 5.99578 2.7734C6.25176 2.54176 6.52685 2.33217 6.81813 2.14685C6.81813 2.40139 6.81813 2.65593 6.97477 2.94962C7.7188 6.5523 8.77611 12.6808 9.5593 16.2247C9.89216 18.0456 10.1467 19.2009 10.1859 19.24Z" fill="#F7A27E"/>
</g>
<g style="mix-blend-mode:multiply" opacity="0.3">
<path d="M24.4397 3.53707C24.2831 4.00698 24.1069 4.53564 23.9307 5.12303L20.3084 16.2248C19.5644 18.4765 19.0553 20.1407 19.0553 20.1407C19.0553 20.1407 18.233 19.4554 18.3896 19.2792C18.5462 19.103 18.7029 17.9086 19.0945 15.9507C19.8972 11.7214 21.2091 4.71186 21.7573 1.65741C22.0283 1.77459 22.2901 1.91204 22.5405 2.06859C22.8692 2.26793 23.1832 2.49039 23.4803 2.7343V2.7343C23.8231 2.97317 24.1442 3.2418 24.4397 3.53707Z" fill="#F7A27E"/>
</g>
<path d="M6.19138 30.6747L4.1355 18.9268C7.2992 16.7357 11.056 15.5618 14.9044 15.5618C18.7528 15.5618 22.5096 16.7357 25.6733 18.9268L23.7153 31.0663L6.19138 30.6747Z" fill="black"/>
<path d="M6.19138 30.6747L4.1355 18.9268C7.2992 16.7357 11.056 15.5618 14.9044 15.5618C18.7528 15.5618 22.5096 16.7357 25.6733 18.9268L23.7153 31.0663L6.19138 30.6747Z" fill="black"/>
<path d="M6.19138 30.6747L4.1355 18.9268C7.2992 16.7357 11.056 15.5618 14.9044 15.5618C18.7528 15.5618 22.5096 16.7357 25.6733 18.9268L23.7153 31.0663L6.19138 30.6747Z" fill="url(#paint0_linear_1_236)"/>
<path d="M25.791 59.7702C25.791 59.9464 25.791 64.2736 17.9591 64.2736H12.1635C4.33154 64.2736 4.23364 59.9464 4.23364 59.7702H25.791Z" fill="#13151A"/>
<g style="mix-blend-mode:screen">
<path style="mix-blend-mode:screen" d="M25.791 59.7702C25.791 59.9464 25.791 64.2736 17.9591 64.2736H12.1635C4.33154 64.2736 4.23364 59.9464 4.23364 59.7702H25.791Z" fill="url(#paint1_linear_1_236)"/>
</g>
<path d="M15.0025 54.3661H13.9647V54.3466L15.0025 54.3661Z" fill="#FDBF5A"/>
<path d="M25.7909 59.7702C25.7909 61.3561 4.25317 61.3561 4.25317 59.7702L5.3888 54.5032L14.0039 54.3661H16.0598L24.6749 54.5032L25.7909 59.7702Z" fill="#FDBF5A"/>
<path d="M16.0596 54.3467V54.3663H15.0023L16.0596 54.3467Z" fill="#FDBF5A"/>
<path d="M5.15373 54.4837L2.92163 52.3104L3.15659 33.7487L5.42784 29.4412L5.15373 54.4837Z" fill="#1B1B1B"/>
<path d="M5.15373 54.4837L2.92163 52.3104L3.15659 33.7487L5.42784 29.4412L5.15373 54.4837Z" fill="url(#paint2_linear_1_236)"/>
<path d="M6.70048 42.2462L2.45166 43.4993V39.3093L6.70048 40.5624V42.2462Z" fill="#FDBF5A"/>
<path d="M25.0272 54.4837L27.2788 52.3104L27.0243 33.7487L24.7531 29.4412L25.0272 54.4837Z" fill="#1B1B1B"/>
<path d="M25.0272 54.4837L27.2788 52.3104L27.0243 33.7487L24.7531 29.4412L25.0272 54.4837Z" fill="url(#paint3_linear_1_236)"/>
<path d="M23.5001 42.2462L27.7294 43.4993V39.3093L23.5001 40.5624V42.2462Z" fill="#FDBF5A"/>
<path d="M24.6749 54.4837C24.6749 56.4416 5.33008 56.4416 5.33008 54.4837V29.3628C5.33008 28.9993 5.47448 28.6507 5.73151 28.3936C5.98855 28.1366 6.33716 27.9922 6.70066 27.9922H23.2848C23.4664 27.9896 23.6467 28.0231 23.8153 28.0909C23.9838 28.1586 24.1372 28.2591 24.2666 28.3867C24.3959 28.5142 24.4986 28.6662 24.5687 28.8337C24.6388 29.0013 24.6749 29.1811 24.6749 29.3628V54.4837Z" fill="#FDBF5A"/>
<path d="M7.2097 68.8357L2.49097 64.117C3.13157 63.9387 3.81073 63.9553 4.44189 64.1645C5.07305 64.3737 5.62762 64.7662 6.03491 65.2917C6.55245 65.7056 6.93888 66.2607 7.14739 66.8897C7.3559 67.5187 7.37754 68.1946 7.2097 68.8357Z" fill="#FF7910"/>
<path d="M27.0832 64.117L22.3644 68.8357C22.1966 68.1946 22.2182 67.5187 22.4267 66.8897C22.6352 66.2607 23.0217 65.7056 23.5392 65.2917C23.9465 64.7662 24.5011 64.3737 25.1322 64.1645C25.7634 63.9553 26.4425 63.9387 27.0832 64.117Z" fill="#FF7910"/>
<path d="M27.3181 7.21803C26.1471 6.98321 25.0789 6.38751 24.2637 5.51459L23.8917 5.12299C23.0609 4.31369 22.5588 3.22577 22.4819 2.06854C22.8106 2.26788 23.1247 2.49035 23.4218 2.73426V2.73426C23.7442 2.97583 24.0455 3.24439 24.3224 3.53703C24.577 3.81114 24.8315 4.08526 25.0665 4.37896C25.3014 4.67266 25.5364 4.98593 25.7713 5.29921C26.0063 5.61249 26.7895 6.55232 27.3181 7.21803Z" fill="#F7A27E"/>
<path d="M7.05291 2.94963C6.7376 3.91835 6.18579 4.79318 5.44737 5.495L4.97745 5.94534C4.21627 6.62968 3.26906 7.07262 2.25586 7.21803C3.05863 6.19988 3.72434 5.26005 4.4488 4.30064C4.91431 3.73727 5.43223 3.21935 5.9956 2.75383C6.25234 2.52896 6.52741 2.32593 6.81795 2.14686C6.9187 2.0706 7.0311 2.0111 7.15081 1.97064C7.1837 2.30024 7.15042 2.63308 7.05291 2.94963V2.94963Z" fill="#F7A27E"/>
</g>
<defs>
<linearGradient id="paint0_linear_1_236" x1="4.1355" y1="23.2148" x2="25.6929" y2="23.2148" gradientUnits="userSpaceOnUse">
<stop stop-color="white" stop-opacity="0.3"/>
<stop offset="0.21" stop-color="#E1E1E1" stop-opacity="0.26"/>
<stop offset="0.55" stop-color="#8E8E8E" stop-opacity="0.17"/>
<stop offset="0.97" stop-color="#090909" stop-opacity="0.01"/>
<stop offset="1" stop-opacity="0"/>
</linearGradient>
<linearGradient id="paint1_linear_1_236" x1="40.45" y1="201.13" x2="277.796" y2="201.13" gradientUnits="userSpaceOnUse">
<stop stop-color="white" stop-opacity="0.3"/>
<stop offset="0.21" stop-color="#E1E1E1" stop-opacity="0.26"/>
<stop offset="0.55" stop-color="#8E8E8E" stop-opacity="0.17"/>
<stop offset="0.97" stop-color="#090909" stop-opacity="0.01"/>
<stop offset="1" stop-opacity="0"/>
</linearGradient>
<linearGradient id="paint2_linear_1_236" x1="5.40278" y1="558.841" x2="8.48543" y2="558.841" gradientUnits="userSpaceOnUse">
<stop stop-color="white" stop-opacity="0.3"/>
<stop offset="0.21" stop-color="#E1E1E1" stop-opacity="0.26"/>
<stop offset="0.55" stop-color="#8E8E8E" stop-opacity="0.17"/>
<stop offset="0.97" stop-color="#090909" stop-opacity="0.01"/>
<stop offset="1" stop-opacity="0"/>
</linearGradient>
<linearGradient id="paint3_linear_1_236" x1="58.0935" y1="558.841" x2="55.9213" y2="558.841" gradientUnits="userSpaceOnUse">
<stop stop-color="white" stop-opacity="0.3"/>
<stop offset="0.21" stop-color="#E1E1E1" stop-opacity="0.26"/>
<stop offset="0.55" stop-color="#8E8E8E" stop-opacity="0.17"/>
<stop offset="0.97" stop-color="#090909" stop-opacity="0.01"/>
<stop offset="1" stop-opacity="0"/>
</linearGradient>
<clipPath id="clip0_1_236">
<rect width="27.6663" height="68.451" fill="white" transform="translate(0.944092 0.560913)"/>
</clipPath>
</defs>
</svg>
